<svg version="1.1" id="Layer_1" xmlns="http://www.w3.org/2000/svg" xmlns:xlink="http://www.w3.org/1999/xlink" x="0px" y="0px"
	 width="100%" viewBox="0 0 180 180" enable-background="new 0 0 180 180" xml:space="preserve">
<path fill="#000000" opacity="1.000000" stroke="none" 
	d="
M116.000000,181.000000 
	C77.333336,181.000000 39.166672,181.000000 1.000005,181.000000 
	C1.000003,121.000008 1.000003,61.000011 1.000002,1.000013 
	C60.999989,1.000009 120.999977,1.000009 180.999969,1.000004 
	C180.999985,60.999985 180.999985,120.999969 181.000000,180.999969 
	C159.500000,181.000000 138.000000,181.000000 116.000000,181.000000 
M43.997292,151.503021 
	C45.797710,150.745636 47.591362,149.971664 49.399567,149.233337 
	C80.744698,136.434570 112.110825,123.686516 143.383057,110.712082 
	C144.997589,110.042236 146.783554,107.475555 146.839310,105.739006 
	C147.165314,95.585732 147.095474,85.414673 146.886475,75.255226 
	C146.857834,73.863579 145.625198,71.770676 144.412857,71.247749 
	C136.796600,67.962593 129.001099,65.096680 121.315910,61.966850 
	C105.936996,55.703716 90.606514,49.321671 75.226578,43.061073 
	C62.005348,37.679211 48.743160,32.397976 34.999836,26.871489 
	C34.999836,40.155716 35.189674,52.954170 34.891342,65.741234 
	C34.793983,69.914314 36.078953,71.779617 40.060963,73.044197 
	C57.558205,78.600845 74.951500,84.484825 92.824928,90.396492 
	C91.557068,91.064919 90.737946,91.637619 89.829590,91.954628 
	C75.404640,96.988777 60.977486,102.016960 46.531563,106.990509 
	C35.011383,110.956764 34.999805,110.923149 34.999817,122.996506 
	C34.999821,124.162842 34.999817,125.329170 34.999817,126.495506 
	C34.999813,135.905045 34.999821,145.314575 34.999821,155.138428 
	C38.227798,153.895920 40.783958,152.912003 43.997292,151.503021 
z"/>
<path fill="#FF0300" opacity="1.000000" stroke="none" 
	d="
M43.668705,151.715561 
	C40.783958,152.912003 38.227798,153.895920 34.999821,155.138428 
	C34.999821,145.314575 34.999813,135.905045 34.999817,126.495506 
	C34.999817,125.329170 34.999821,124.162842 34.999817,122.996506 
	C34.999805,110.923149 35.011383,110.956764 46.531563,106.990509 
	C60.977486,102.016960 75.404640,96.988777 89.829590,91.954628 
	C90.737946,91.637619 91.557068,91.064919 92.824928,90.396492 
	C74.951500,84.484825 57.558205,78.600845 40.060963,73.044197 
	C36.078953,71.779617 34.793983,69.914314 34.891342,65.741234 
	C35.189674,52.954170 34.999836,40.155716 34.999836,26.871489 
	C48.743160,32.397976 62.005348,37.679211 75.226578,43.061073 
	C90.606514,49.321671 105.936996,55.703716 121.315910,61.966850 
	C129.001099,65.096680 136.796600,67.962593 144.412857,71.247749 
	C145.625198,71.770676 146.857834,73.863579 146.886475,75.255226 
	C147.095474,85.414673 147.165314,95.585732 146.839310,105.739006 
	C146.783554,107.475555 144.997589,110.042236 143.383057,110.712082 
	C112.110825,123.686516 80.744698,136.434570 49.399567,149.233337 
	C47.591362,149.971664 45.797710,150.745636 43.668705,151.715561 
M141.106049,97.364410 
	C141.105560,92.367004 140.868881,87.354935 141.177933,82.376747 
	C141.433411,78.261658 139.951233,76.197945 136.042816,74.626877 
	C106.068382,62.578011 76.193535,50.281509 46.279221,38.082851 
	C44.790344,37.475708 43.222435,37.062378 40.890888,36.295536 
	C40.890888,45.113251 41.063358,53.232605 40.814690,61.339043 
	C40.698593,65.123749 42.004044,66.924141 45.643448,68.128914 
	C65.402710,74.669899 85.078896,81.461998 104.778038,88.184212 
	C106.593910,88.803871 108.369949,89.540230 111.339043,90.668892 
	C108.680954,91.770447 107.235649,92.453743 105.734917,92.978539 
	C87.030273,99.519394 68.296577,105.977852 49.615318,112.584633 
	C39.402187,116.196587 41.045628,113.813156 40.904774,124.967987 
	C40.819927,131.687103 40.889175,138.408173 40.889175,145.841873 
	C43.656937,144.844162 45.370831,144.294617 47.032581,143.617188 
	C76.331451,131.673172 105.573021,119.585609 134.968018,107.883354 
	C139.864105,105.934204 141.970306,103.384354 141.106049,97.364410 
z"/>
<path fill="#F97A14" opacity="1.000000" stroke="none" 
	d="
M141.106110,97.841812 
	C141.970306,103.384354 139.864105,105.934204 134.968018,107.883354 
	C105.573021,119.585609 76.331451,131.673172 47.032581,143.617188 
	C45.370831,144.294617 43.656937,144.844162 40.889175,145.841873 
	C40.889175,138.408173 40.819927,131.687103 40.904774,124.967987 
	C41.045628,113.813156 39.402187,116.196587 49.615318,112.584633 
	C68.296577,105.977852 87.030273,99.519394 105.734917,92.978539 
	C107.235649,92.453743 108.680954,91.770447 111.339043,90.668892 
	C108.369949,89.540230 106.593910,88.803871 104.778038,88.184212 
	C85.078896,81.461998 65.402710,74.669899 45.643448,68.128914 
	C42.004044,66.924141 40.698593,65.123749 40.814690,61.339043 
	C41.063358,53.232605 40.890888,45.113251 40.890888,36.295536 
	C43.222435,37.062378 44.790344,37.475708 46.279221,38.082851 
	C76.193535,50.281509 106.068382,62.578011 136.042816,74.626877 
	C139.951233,76.197945 141.433411,78.261658 141.177933,82.376747 
	C140.868881,87.354935 141.105560,92.367004 141.106110,97.841812 
z"/>
</svg>